<svg width="111" height="24" viewBox="0 0 111 24" fill="none" xmlns="http://www.w3.org/2000/svg">
<path d="M5.25 2.25C5.25 3.44347 5.72411 4.58807 6.56802 5.43198C7.41193 6.27589 8.55653 6.75 9.75 6.75H14.25C15.4435 6.75 16.5881 6.27589 17.432 5.43198C18.2759 4.58807 18.75 3.44347 18.75 2.25" stroke="#8D8D86" stroke-width="1.5" stroke-linecap="round" stroke-linejoin="round"/>
<path d="M16.5 15H7.5C5.84315 15 4.5 16.3431 4.5 18C4.5 19.6569 5.84315 21 7.5 21H16.5C18.1569 21 19.5 19.6569 19.5 18C19.5 16.3431 18.1569 15 16.5 15Z" stroke="#8D8D86" stroke-width="1.5" stroke-linecap="round" stroke-linejoin="round"/>
<path d="M7.5 18H9" stroke="#8D8D86" stroke-width="1.5" stroke-linecap="round" stroke-linejoin="round"/>
<path d="M15 18H16.5" stroke="#8D8D86" stroke-width="1.5" stroke-linecap="round" stroke-linejoin="round"/>
<path d="M9.375 12.5625C9.89277 12.5625 10.3125 12.1428 10.3125 11.625C10.3125 11.1072 9.89277 10.6875 9.375 10.6875C8.85723 10.6875 8.4375 11.1072 8.4375 11.625C8.4375 12.1428 8.85723 12.5625 9.375 12.5625Z" fill="#8D8D86"/>
<path d="M14.625 12.5625C15.1428 12.5625 15.5625 12.1428 15.5625 11.625C15.5625 11.1072 15.1428 10.6875 14.625 10.6875C14.1072 10.6875 13.6875 11.1072 13.6875 11.625C13.6875 12.1428 14.1072 12.5625 14.625 12.5625Z" fill="#8D8D86"/>
<path d="M15 6.75H18.0731C19.1127 6.74971 20.1203 7.10936 20.9248 7.76785C21.7292 8.42634 22.2808 9.34304 22.4859 10.3622C22.5062 10.4704 22.5023 10.5817 22.4747 10.6882C22.4471 10.7948 22.3964 10.8939 22.3261 10.9786C22.2559 11.0634 22.1679 11.1316 22.0683 11.1785C21.9687 11.2254 21.8601 11.2498 21.75 11.25H18" stroke="#8D8D86" stroke-width="1.5" stroke-linecap="round" stroke-linejoin="round"/>
<path d="M8.99999 6.75H5.92686C4.88728 6.74971 3.87967 7.10936 3.07523 7.76785C2.27079 8.42634 1.71915 9.34304 1.51405 10.3622C1.49383 10.4704 1.49766 10.5817 1.52528 10.6882C1.5529 10.7948 1.60363 10.8939 1.67387 10.9786C1.74411 11.0634 1.83213 11.1316 1.9317 11.1785C2.03126 11.2254 2.13993 11.2498 2.24999 11.25H5.99999" stroke="#8D8D86" stroke-width="1.5" stroke-linecap="round" stroke-linejoin="round"/>
<path d="M6 15.4012V9.75C6 8.95435 6.31607 8.19129 6.87868 7.62868C7.44129 7.06607 8.20435 6.75 9 6.75H15C15.7956 6.75 16.5587 7.06607 17.1213 7.62868C17.6839 8.19129 18 8.95435 18 9.75V15.4012" stroke="#8D8D86" stroke-width="1.5" stroke-linecap="round" stroke-linejoin="round"/>
<path d="M32.764 16.62C32.164 16.62 31.608 16.512 31.096 16.296C30.584 16.072 30.136 15.764 29.752 15.372C29.376 14.98 29.084 14.524 28.876 14.004C28.668 13.484 28.564 12.928 28.564 12.336C28.564 11.736 28.668 11.176 28.876 10.656C29.084 10.136 29.376 9.684 29.752 9.3C30.136 8.908 30.58 8.604 31.084 8.388C31.596 8.164 32.152 8.052 32.752 8.052C33.408 8.052 33.984 8.164 34.48 8.388C34.976 8.612 35.416 8.916 35.8 9.3L35.02 10.08C34.756 9.784 34.432 9.552 34.048 9.384C33.672 9.216 33.24 9.132 32.752 9.132C32.312 9.132 31.908 9.212 31.54 9.372C31.172 9.524 30.852 9.744 30.58 10.032C30.308 10.32 30.096 10.66 29.944 11.052C29.8 11.444 29.728 11.872 29.728 12.336C29.728 12.8 29.8 13.228 29.944 13.62C30.096 14.012 30.308 14.352 30.58 14.64C30.852 14.928 31.172 15.152 31.54 15.312C31.908 15.464 32.312 15.54 32.752 15.54C33.272 15.54 33.724 15.456 34.108 15.288C34.492 15.112 34.816 14.876 35.08 14.58L35.86 15.348C35.476 15.748 35.024 16.06 34.504 16.284C33.992 16.508 33.412 16.62 32.764 16.62ZM39.4585 16.62C38.8985 16.62 38.3945 16.488 37.9465 16.224C37.4985 15.96 37.1425 15.604 36.8785 15.156C36.6145 14.7 36.4825 14.192 36.4825 13.632C36.4825 13.08 36.6145 12.584 36.8785 12.144C37.1425 11.696 37.4985 11.34 37.9465 11.076C38.3945 10.812 38.8985 10.68 39.4585 10.68C40.0105 10.68 40.5105 10.812 40.9585 11.076C41.4145 11.332 41.7745 11.684 42.0385 12.132C42.3025 12.58 42.4345 13.08 42.4345 13.632C42.4345 14.192 42.3025 14.7 42.0385 15.156C41.7745 15.604 41.4145 15.96 40.9585 16.224C40.5105 16.488 40.0105 16.62 39.4585 16.62ZM39.4585 15.576C39.8185 15.576 40.1385 15.492 40.4185 15.324C40.6985 15.156 40.9185 14.928 41.0785 14.64C41.2385 14.344 41.3185 14.008 41.3185 13.632C41.3185 13.264 41.2345 12.936 41.0665 12.648C40.9065 12.36 40.6865 12.136 40.4065 11.976C40.1345 11.808 39.8185 11.724 39.4585 11.724C39.0985 11.724 38.7785 11.808 38.4985 11.976C38.2185 12.136 37.9985 12.36 37.8385 12.648C37.6785 12.936 37.5985 13.264 37.5985 13.632C37.5985 14.008 37.6785 14.344 37.8385 14.64C37.9985 14.928 38.2185 15.156 38.4985 15.324C38.7785 15.492 39.0985 15.576 39.4585 15.576ZM47.6834 16.5V13.176C47.6834 12.744 47.5474 12.388 47.2754 12.108C47.0034 11.828 46.6514 11.688 46.2194 11.688C45.9314 11.688 45.6754 11.752 45.4514 11.88C45.2274 12.008 45.0514 12.184 44.9234 12.408C44.7954 12.632 44.7314 12.888 44.7314 13.176L44.2874 12.924C44.2874 12.492 44.3834 12.108 44.5754 11.772C44.7674 11.436 45.0354 11.172 45.3794 10.98C45.7234 10.78 46.1114 10.68 46.5434 10.68C46.9754 10.68 47.3554 10.788 47.6834 11.004C48.0194 11.22 48.2834 11.504 48.4754 11.856C48.6674 12.2 48.7634 12.568 48.7634 12.96V16.5H47.6834ZM43.6514 16.5V10.8H44.7314V16.5H43.6514ZM51.0313 16.5V8.412H52.1113V16.5H51.0313ZM49.6273 11.784V10.8H53.5153V11.784H49.6273ZM57.0375 16.62C56.4695 16.62 55.9575 16.492 55.5015 16.236C55.0455 15.972 54.6855 15.616 54.4215 15.168C54.1575 14.72 54.0255 14.212 54.0255 13.644C54.0255 13.084 54.1535 12.58 54.4095 12.132C54.6735 11.684 55.0255 11.332 55.4655 11.076C55.9135 10.812 56.4135 10.68 56.9655 10.68C57.4935 10.68 57.9575 10.8 58.3575 11.04C58.7655 11.28 59.0815 11.612 59.3055 12.036C59.5375 12.46 59.6535 12.94 59.6535 13.476C59.6535 13.556 59.6495 13.644 59.6415 13.74C59.6335 13.828 59.6175 13.932 59.5935 14.052H54.7815V13.152H59.0175L58.6215 13.5C58.6215 13.116 58.5535 12.792 58.4175 12.528C58.2815 12.256 58.0895 12.048 57.8415 11.904C57.5935 11.752 57.2935 11.676 56.9415 11.676C56.5735 11.676 56.2495 11.756 55.9695 11.916C55.6895 12.076 55.4735 12.3 55.3215 12.588C55.1695 12.876 55.0935 13.216 55.0935 13.608C55.0935 14.008 55.1735 14.36 55.3335 14.664C55.4935 14.96 55.7215 15.192 56.0175 15.36C56.3135 15.52 56.6535 15.6 57.0375 15.6C57.3575 15.6 57.6495 15.544 57.9135 15.432C58.1855 15.32 58.4175 15.152 58.6095 14.928L59.3055 15.636C59.0335 15.956 58.6975 16.2 58.2975 16.368C57.9055 16.536 57.4855 16.62 57.0375 16.62ZM56.2335 9.948L55.7415 9.456L57.3015 7.524L58.1535 8.376L56.2335 9.948ZM60.8311 16.5V10.8H61.9111V16.5H60.8311ZM64.6831 16.5V13.056C64.6831 12.632 64.5511 12.3 64.2871 12.06C64.0311 11.812 63.7071 11.688 63.3151 11.688C63.0511 11.688 62.8151 11.744 62.6071 11.856C62.3991 11.968 62.2311 12.124 62.1031 12.324C61.9751 12.524 61.9111 12.764 61.9111 13.044L61.4671 12.828C61.4671 12.396 61.5591 12.02 61.7431 11.7C61.9351 11.38 62.1951 11.132 62.5231 10.956C62.8511 10.772 63.2191 10.68 63.6271 10.68C64.0271 10.68 64.3871 10.768 64.7071 10.944C65.0351 11.12 65.2911 11.368 65.4751 11.688C65.6671 12.008 65.7631 12.388 65.7631 12.828V16.5H64.6831ZM68.5351 16.5V13.056C68.5351 12.632 68.4031 12.3 68.1391 12.06C67.8831 11.812 67.5631 11.688 67.1791 11.688C66.9151 11.688 66.6751 11.744 66.4591 11.856C66.2511 11.968 66.0831 12.124 65.9551 12.324C65.8271 12.524 65.7631 12.764 65.7631 13.044L65.1511 12.828C65.1751 12.388 65.2911 12.012 65.4991 11.7C65.7151 11.38 65.9911 11.132 66.3271 10.956C66.6631 10.772 67.0311 10.68 67.4311 10.68C67.8471 10.68 68.2191 10.768 68.5471 10.944C68.8751 11.12 69.1351 11.368 69.3271 11.688C69.5271 12.008 69.6271 12.392 69.6271 12.84V16.5H68.5351ZM73.5928 16.5V7.932H74.6728V16.5H73.5928ZM78.6769 16.62C78.1569 16.62 77.6849 16.492 77.2609 16.236C76.8369 15.972 76.5009 15.616 76.2529 15.168C76.0129 14.72 75.8929 14.216 75.8929 13.656C75.8929 13.096 76.0129 12.592 76.2529 12.144C76.5009 11.696 76.8329 11.34 77.2489 11.076C77.6729 10.812 78.1489 10.68 78.6769 10.68C79.1089 10.68 79.4929 10.772 79.8289 10.956C80.1729 11.132 80.4489 11.38 80.6569 11.7C80.8649 12.012 80.9809 12.376 81.0049 12.792V14.508C80.9809 14.916 80.8649 15.28 80.6569 15.6C80.4569 15.92 80.1849 16.172 79.8409 16.356C79.5049 16.532 79.1169 16.62 78.6769 16.62ZM78.8569 15.6C79.3929 15.6 79.8249 15.42 80.1529 15.06C80.4809 14.692 80.6449 14.224 80.6449 13.656C80.6449 13.264 80.5689 12.924 80.4169 12.636C80.2729 12.34 80.0649 12.112 79.7929 11.952C79.5209 11.784 79.2049 11.7 78.8449 11.7C78.4849 11.7 78.1649 11.784 77.8849 11.952C77.6129 12.12 77.3969 12.352 77.2369 12.648C77.0849 12.936 77.0089 13.268 77.0089 13.644C77.0089 14.028 77.0849 14.368 77.2369 14.664C77.3969 14.952 77.6169 15.18 77.8969 15.348C78.1769 15.516 78.4969 15.6 78.8569 15.6ZM80.5729 16.5V14.964L80.7769 13.572L80.5729 12.192V10.8H81.6649V16.5H80.5729ZM85.8413 16.62C85.2813 16.62 84.7733 16.488 84.3173 16.224C83.8693 15.96 83.5133 15.604 83.2493 15.156C82.9933 14.7 82.8653 14.196 82.8653 13.644C82.8653 13.084 82.9933 12.58 83.2493 12.132C83.5133 11.684 83.8693 11.332 84.3173 11.076C84.7733 10.812 85.2813 10.68 85.8413 10.68C86.2813 10.68 86.6893 10.764 87.0653 10.932C87.4413 11.092 87.7653 11.328 88.0373 11.64L87.3173 12.36C87.1413 12.152 86.9253 11.996 86.6693 11.892C86.4213 11.78 86.1453 11.724 85.8413 11.724C85.4813 11.724 85.1613 11.808 84.8813 11.976C84.6013 12.136 84.3813 12.36 84.2213 12.648C84.0613 12.936 83.9813 13.268 83.9813 13.644C83.9813 14.02 84.0613 14.352 84.2213 14.64C84.3813 14.928 84.6013 15.156 84.8813 15.324C85.1613 15.492 85.4813 15.576 85.8413 15.576C86.1453 15.576 86.4213 15.524 86.6693 15.42C86.9253 15.308 87.1453 15.148 87.3293 14.94L88.0373 15.66C87.7733 15.964 87.4493 16.2 87.0653 16.368C86.6893 16.536 86.2813 16.62 85.8413 16.62ZM89.9141 16.5V8.412H90.9941V16.5H89.9141ZM88.5101 11.784V10.8H92.3981V11.784H88.5101ZM95.8843 16.62C95.3243 16.62 94.8203 16.488 94.3723 16.224C93.9243 15.96 93.5683 15.604 93.3043 15.156C93.0403 14.7 92.9083 14.192 92.9083 13.632C92.9083 13.08 93.0403 12.584 93.3043 12.144C93.5683 11.696 93.9243 11.34 94.3723 11.076C94.8203 10.812 95.3243 10.68 95.8843 10.68C96.4363 10.68 96.9363 10.812 97.3843 11.076C97.8403 11.332 98.2003 11.684 98.4643 12.132C98.7283 12.58 98.8603 13.08 98.8603 13.632C98.8603 14.192 98.7283 14.7 98.4643 15.156C98.2003 15.604 97.8403 15.96 97.3843 16.224C96.9363 16.488 96.4363 16.62 95.8843 16.62ZM95.8843 15.576C96.2443 15.576 96.5643 15.492 96.8443 15.324C97.1243 15.156 97.3443 14.928 97.5043 14.64C97.6643 14.344 97.7443 14.008 97.7443 13.632C97.7443 13.264 97.6603 12.936 97.4923 12.648C97.3323 12.36 97.1123 12.136 96.8323 11.976C96.5603 11.808 96.2443 11.724 95.8843 11.724C95.5243 11.724 95.2043 11.808 94.9243 11.976C94.6443 12.136 94.4243 12.36 94.2643 12.648C94.1043 12.936 94.0243 13.264 94.0243 13.632C94.0243 14.008 94.1043 14.344 94.2643 14.64C94.4243 14.928 94.6443 15.156 94.9243 15.324C95.2043 15.492 95.5243 15.576 95.8843 15.576ZM101.889 16.62C101.569 16.62 101.265 16.58 100.977 16.5C100.697 16.412 100.437 16.292 100.197 16.14C99.9572 15.98 99.7492 15.792 99.5732 15.576L100.269 14.88C100.477 15.136 100.717 15.328 100.989 15.456C101.261 15.576 101.565 15.636 101.901 15.636C102.237 15.636 102.497 15.58 102.681 15.468C102.865 15.348 102.957 15.184 102.957 14.976C102.957 14.768 102.881 14.608 102.729 14.496C102.585 14.376 102.397 14.28 102.165 14.208C101.933 14.128 101.685 14.052 101.421 13.98C101.165 13.9 100.921 13.8 100.689 13.68C100.457 13.56 100.265 13.396 100.113 13.188C99.9692 12.98 99.8972 12.704 99.8972 12.36C99.8972 12.016 99.9812 11.72 100.149 11.472C100.317 11.216 100.549 11.02 100.845 10.884C101.149 10.748 101.513 10.68 101.937 10.68C102.385 10.68 102.781 10.76 103.125 10.92C103.477 11.072 103.765 11.304 103.989 11.616L103.293 12.312C103.133 12.104 102.933 11.944 102.693 11.832C102.461 11.72 102.197 11.664 101.901 11.664C101.589 11.664 101.349 11.72 101.181 11.832C101.021 11.936 100.941 12.084 100.941 12.276C100.941 12.468 101.013 12.616 101.157 12.72C101.301 12.824 101.489 12.912 101.721 12.984C101.961 13.056 102.209 13.132 102.465 13.212C102.721 13.284 102.965 13.384 103.197 13.512C103.429 13.64 103.617 13.812 103.761 14.028C103.913 14.244 103.989 14.528 103.989 14.88C103.989 15.416 103.797 15.84 103.413 16.152C103.037 16.464 102.529 16.62 101.889 16.62ZM107.838 16.62C107.27 16.62 106.758 16.492 106.302 16.236C105.846 15.972 105.486 15.616 105.222 15.168C104.958 14.72 104.826 14.212 104.826 13.644C104.826 13.084 104.954 12.58 105.21 12.132C105.474 11.684 105.826 11.332 106.266 11.076C106.714 10.812 107.214 10.68 107.766 10.68C108.294 10.68 108.758 10.8 109.158 11.04C109.566 11.28 109.882 11.612 110.106 12.036C110.338 12.46 110.454 12.94 110.454 13.476C110.454 13.556 110.45 13.644 110.442 13.74C110.434 13.828 110.418 13.932 110.394 14.052H105.582V13.152H109.818L109.422 13.5C109.422 13.116 109.354 12.792 109.218 12.528C109.082 12.256 108.89 12.048 108.642 11.904C108.394 11.752 108.094 11.676 107.742 11.676C107.374 11.676 107.05 11.756 106.77 11.916C106.49 12.076 106.274 12.3 106.122 12.588C105.97 12.876 105.894 13.216 105.894 13.608C105.894 14.008 105.974 14.36 106.134 14.664C106.294 14.96 106.522 15.192 106.818 15.36C107.114 15.52 107.454 15.6 107.838 15.6C108.158 15.6 108.45 15.544 108.714 15.432C108.986 15.32 109.218 15.152 109.41 14.928L110.106 15.636C109.834 15.956 109.498 16.2 109.098 16.368C108.706 16.536 108.286 16.62 107.838 16.62Z" fill="#8D8D86"/>
</svg>
