<svg width="69" height="24" viewBox="0 0 69 24" fill="none" xmlns="http://www.w3.org/2000/svg">
<path d="M12.9881 14.012C9.99561 9.02353 13.9856 4.03603 22.4653 4.53478C22.9687 13.0145 17.9765 17.0045 12.9881 14.012Z" stroke="#8D8D86" stroke-width="1.5" stroke-linecap="round" stroke-linejoin="round"/>
<path d="M8.29405 15.044C10.4315 11.4815 7.58155 7.91899 1.52436 8.2743C1.16811 14.3315 4.73155 17.1815 8.29405 15.044Z" stroke="#8D8D86" stroke-width="1.5" stroke-linecap="round" stroke-linejoin="round"/>
<path d="M5.25 12L11.25 18" stroke="#8D8D86" stroke-width="1.5" stroke-linecap="round" stroke-linejoin="round"/>
<path d="M18.75 8.25L13.0078 13.9922C12.4505 14.5494 12.0084 15.2109 11.7068 15.9389C11.4052 16.6669 11.25 17.4473 11.25 18.2353V21" stroke="#8D8D86" stroke-width="1.5" stroke-linecap="round" stroke-linejoin="round"/>
<path d="M31.708 16.5L28.372 8.172H29.596L32.344 15.216H31.9L34.672 8.172H35.884L32.524 16.5H31.708ZM38.5101 16.62C37.9421 16.62 37.4301 16.492 36.9741 16.236C36.5181 15.972 36.1581 15.616 35.8941 15.168C35.6301 14.72 35.4981 14.212 35.4981 13.644C35.4981 13.084 35.6261 12.58 35.8821 12.132C36.1461 11.684 36.4981 11.332 36.9381 11.076C37.3861 10.812 37.8861 10.68 38.4381 10.68C38.9661 10.68 39.4301 10.8 39.8301 11.04C40.2381 11.28 40.5541 11.612 40.7781 12.036C41.0101 12.46 41.1261 12.94 41.1261 13.476C41.1261 13.556 41.1221 13.644 41.1141 13.74C41.1061 13.828 41.0901 13.932 41.0661 14.052H36.2541V13.152H40.4901L40.0941 13.5C40.0941 13.116 40.0261 12.792 39.8901 12.528C39.7541 12.256 39.5621 12.048 39.3141 11.904C39.0661 11.752 38.7661 11.676 38.4141 11.676C38.0461 11.676 37.7221 11.756 37.4421 11.916C37.1621 12.076 36.9461 12.3 36.7941 12.588C36.6421 12.876 36.5661 13.216 36.5661 13.608C36.5661 14.008 36.6461 14.36 36.8061 14.664C36.9661 14.96 37.1941 15.192 37.4901 15.36C37.7861 15.52 38.1261 15.6 38.5101 15.6C38.8301 15.6 39.1221 15.544 39.3861 15.432C39.6581 15.32 39.8901 15.152 40.0821 14.928L40.7781 15.636C40.5061 15.956 40.1701 16.2 39.7701 16.368C39.3781 16.536 38.9581 16.62 38.5101 16.62ZM44.6677 19.008C44.0837 19.008 43.5637 18.9 43.1077 18.684C42.6597 18.468 42.2997 18.164 42.0277 17.772L42.7237 17.064C42.9557 17.36 43.2317 17.584 43.5517 17.736C43.8717 17.896 44.2517 17.976 44.6917 17.976C45.2757 17.976 45.7357 17.82 46.0717 17.508C46.4157 17.204 46.5877 16.792 46.5877 16.272V14.856L46.7797 13.572L46.5877 12.3V10.8H47.6677V16.272C47.6677 16.816 47.5397 17.292 47.2837 17.7C47.0357 18.108 46.6837 18.428 46.2277 18.66C45.7797 18.892 45.2597 19.008 44.6677 19.008ZM44.6677 16.404C44.1477 16.404 43.6797 16.28 43.2637 16.032C42.8557 15.784 42.5317 15.444 42.2917 15.012C42.0517 14.572 41.9317 14.08 41.9317 13.536C41.9317 12.992 42.0517 12.508 42.2917 12.084C42.5317 11.652 42.8557 11.312 43.2637 11.064C43.6797 10.808 44.1477 10.68 44.6677 10.68C45.1157 10.68 45.5117 10.768 45.8557 10.944C46.1997 11.12 46.4717 11.368 46.6717 11.688C46.8797 12 46.9917 12.368 47.0077 12.792V14.304C46.9837 14.72 46.8677 15.088 46.6597 15.408C46.4597 15.72 46.1877 15.964 45.8437 16.14C45.4997 16.316 45.1077 16.404 44.6677 16.404ZM44.8837 15.384C45.2357 15.384 45.5437 15.308 45.8077 15.156C46.0797 15.004 46.2877 14.792 46.4317 14.52C46.5757 14.24 46.6477 13.916 46.6477 13.548C46.6477 13.18 46.5717 12.86 46.4197 12.588C46.2757 12.308 46.0717 12.092 45.8077 11.94C45.5437 11.78 45.2317 11.7 44.8717 11.7C44.5117 11.7 44.1957 11.78 43.9237 11.94C43.6517 12.092 43.4357 12.308 43.2757 12.588C43.1237 12.86 43.0477 13.176 43.0477 13.536C43.0477 13.896 43.1237 14.216 43.2757 14.496C43.4357 14.776 43.6517 14.996 43.9237 15.156C44.2037 15.308 44.5237 15.384 44.8837 15.384ZM51.6769 16.62C51.1569 16.62 50.6849 16.492 50.2609 16.236C49.8369 15.972 49.5009 15.616 49.2529 15.168C49.0129 14.72 48.8929 14.216 48.8929 13.656C48.8929 13.096 49.0129 12.592 49.2529 12.144C49.5009 11.696 49.8329 11.34 50.2489 11.076C50.6729 10.812 51.1489 10.68 51.6769 10.68C52.1089 10.68 52.4929 10.772 52.8289 10.956C53.1729 11.132 53.4489 11.38 53.6569 11.7C53.8649 12.012 53.9809 12.376 54.0049 12.792V14.508C53.9809 14.916 53.8649 15.28 53.6569 15.6C53.4569 15.92 53.1849 16.172 52.8409 16.356C52.5049 16.532 52.1169 16.62 51.6769 16.62ZM51.8569 15.6C52.3929 15.6 52.8249 15.42 53.1529 15.06C53.4809 14.692 53.6449 14.224 53.6449 13.656C53.6449 13.264 53.5689 12.924 53.4169 12.636C53.2729 12.34 53.0649 12.112 52.7929 11.952C52.5209 11.784 52.2049 11.7 51.8449 11.7C51.4849 11.7 51.1649 11.784 50.8849 11.952C50.6129 12.12 50.3969 12.352 50.2369 12.648C50.0849 12.936 50.0089 13.268 50.0089 13.644C50.0089 14.028 50.0849 14.368 50.2369 14.664C50.3969 14.952 50.6169 15.18 50.8969 15.348C51.1769 15.516 51.4969 15.6 51.8569 15.6ZM53.5729 16.5V14.964L53.7769 13.572L53.5729 12.192V10.8H54.6649V16.5H53.5729ZM60.2693 16.5V13.176C60.2693 12.744 60.1333 12.388 59.8613 12.108C59.5893 11.828 59.2373 11.688 58.8053 11.688C58.5173 11.688 58.2613 11.752 58.0373 11.88C57.8133 12.008 57.6373 12.184 57.5093 12.408C57.3813 12.632 57.3173 12.888 57.3173 13.176L56.8733 12.924C56.8733 12.492 56.9693 12.108 57.1613 11.772C57.3533 11.436 57.6213 11.172 57.9653 10.98C58.3093 10.78 58.6973 10.68 59.1293 10.68C59.5613 10.68 59.9413 10.788 60.2693 11.004C60.6053 11.22 60.8693 11.504 61.0613 11.856C61.2533 12.2 61.3493 12.568 61.3493 12.96V16.5H60.2693ZM56.2373 16.5V10.8H57.3173V16.5H56.2373ZM65.4155 16.62C64.8555 16.62 64.3515 16.488 63.9035 16.224C63.4555 15.96 63.0995 15.604 62.8355 15.156C62.5715 14.7 62.4395 14.192 62.4395 13.632C62.4395 13.08 62.5715 12.584 62.8355 12.144C63.0995 11.696 63.4555 11.34 63.9035 11.076C64.3515 10.812 64.8555 10.68 65.4155 10.68C65.9675 10.68 66.4675 10.812 66.9155 11.076C67.3715 11.332 67.7315 11.684 67.9955 12.132C68.2595 12.58 68.3915 13.08 68.3915 13.632C68.3915 14.192 68.2595 14.7 67.9955 15.156C67.7315 15.604 67.3715 15.96 66.9155 16.224C66.4675 16.488 65.9675 16.62 65.4155 16.62ZM65.4155 15.576C65.7755 15.576 66.0955 15.492 66.3755 15.324C66.6555 15.156 66.8755 14.928 67.0355 14.64C67.1955 14.344 67.2755 14.008 67.2755 13.632C67.2755 13.264 67.1915 12.936 67.0235 12.648C66.8635 12.36 66.6435 12.136 66.3635 11.976C66.0915 11.808 65.7755 11.724 65.4155 11.724C65.0555 11.724 64.7355 11.808 64.4555 11.976C64.1755 12.136 63.9555 12.36 63.7955 12.648C63.6355 12.936 63.5555 13.264 63.5555 13.632C63.5555 14.008 63.6355 14.344 63.7955 14.64C63.9555 14.928 64.1755 15.156 64.4555 15.324C64.7355 15.492 65.0555 15.576 65.4155 15.576Z" fill="#8D8D86"/>
</svg>
